# WaveFront *.obj file (generated by Autodesk ATF)

mtllib 83e9f864-0821-4f1d-af3c-1a9c54d8cbb5.mtl

g Body1

v -3486.358480 0.000000 -37993.204574
v -3486.358480 2000.000000 -37993.204574
v -3486.358480 2000.000000 -40706.376329
v -3486.358480 0.000000 -40706.376329
v -5486.358480 2000.000000 -37993.204574
v -5486.358480 2000.000000 -40706.376329
v -5486.358480 0.000000 -37993.204574
v -5486.358480 0.000000 -40706.376329
v -2979.275897 0.000000 -37993.204574
v -2979.275897 2500.000000 -37993.204574
v -5979.275897 2500.000000 -37993.204574
v -5979.275897 0.000000 -37993.204574
v -5979.275897 0.000000 -40993.204574
v -5979.275897 2500.000000 -40993.204574
v -2979.275897 0.000000 -40993.204574
v -2979.275897 2500.000000 -40993.204574
v -19496.520394 0.000000 -40993.204574
v -19496.520394 0.000000 -30993.204574
v 10503.479606 0.000000 -30993.204574
v 10503.479606 0.000000 -40993.204574
v 10503.479606 -500.000000 -30993.204574
v 10503.479606 -500.000000 -40993.204574
v -19496.520394 -500.000000 -40993.204574
v -19496.520394 -500.000000 -30993.204574
vt -200.000000 0.000000 0.000000
vt 0.000000 0.000000 0.000000
vt -200.000000 271.317176 0.000000
vt -0.000000 271.317176 0.000000
vt -200.000000 0.000000 0.000000
vt -0.000000 0.000000 0.000000
vt -200.000000 271.317176 0.000000
vt -0.000000 271.317176 0.000000
vt -200.000000 0.000000 0.000000
vt -0.000000 0.000000 0.000000
vt -200.000000 271.317176 0.000000
vt -0.000000 271.317176 0.000000
vt -100.000000 -100.000000 0.000000
vt 100.000000 -100.000000 0.000000
vt -100.000000 100.000000 0.000000
vt 100.000000 100.000000 0.000000
vt 49.291742 0.000000 0.000000
vt 49.291742 200.000000 0.000000
vt 0.000000 0.000000 0.000000
vt 0.000000 250.000000 0.000000
vt 249.291742 200.000000 0.000000
vt 300.000000 250.000000 0.000000
vt 300.000000 0.000000 0.000000
vt 249.291742 0.000000 0.000000
vt 0.000000 0.000000 0.000000
vt 300.000001 0.000000 0.000000
vt 0.000000 250.000000 0.000000
vt 300.000001 250.000000 0.000000
vt -0.000000 0.000000 0.000000
vt 300.000001 0.000000 0.000000
vt -0.000000 250.000000 0.000000
vt 300.000001 250.000000 0.000000
vt 150.000000 150.000000 0.000000
vt -150.000000 150.000000 0.000000
vt 150.000000 -150.000000 0.000000
vt -150.000000 -150.000000 0.000000
vt 151.724450 500.000001 0.000000
vt 151.724450 200.000000 0.000000
vt 1500.000000 500.000001 0.000000
vt 1500.000000 -500.000001 0.000000
vt 101.016191 200.000000 0.000000
vt -98.983809 200.000000 0.000000
vt -98.983809 471.317176 0.000000
vt 101.016191 471.317176 0.000000
vt -1500.000000 -500.000001 0.000000
vt -148.275550 200.000000 0.000000
vt -1500.000000 500.000001 0.000000
vt -148.275550 500.000001 0.000000
vt 0.000000 0.000000 0.000000
vt 999.999997 0.000000 0.000000
vt 0.000000 50.000000 0.000000
vt 999.999997 50.000000 0.000000
vt 2999.999999 0.000000 0.000000
vt 2999.999999 50.000000 0.000000
vt 1651.724449 0.000000 0.000000
vt 1351.724449 0.000000 0.000000
vt 1651.724449 -250.000000 0.000000
vt 1351.724449 -250.000000 0.000000
vt 0.000000 50.000000 0.000000
vt 0.000000 0.000000 0.000000
vt 0.000000 0.000000 0.000000
vt 1000.000002 0.000000 0.000000
vt 0.000000 50.000000 0.000000
vt 1000.000002 50.000000 0.000000
vt -0.000000 0.000000 0.000000
vt 2999.999999 0.000000 0.000000
vt -0.000000 50.000000 0.000000
vt 2999.999999 50.000000 0.000000
vt -500.000001 -1500.000000 0.000000
vt 500.000001 -1500.000000 0.000000
vt -500.000001 1500.000000 0.000000
vt 500.000001 1500.000000 0.000000
vn -0.100000 0.000000 -0.000000
vn -0.100000 0.000000 -0.000000
vn -0.100000 0.000000 -0.000000
vn -0.100000 0.000000 -0.000000
vn 0.000000 -0.100000 0.000000
vn 0.000000 -0.100000 0.000000
vn 0.000000 -0.100000 0.000000
vn 0.000000 -0.100000 0.000000
vn 0.100000 0.000000 0.000000
vn 0.100000 0.000000 0.000000
vn 0.100000 0.000000 0.000000
vn 0.100000 0.000000 0.000000
vn 0.000000 0.000000 0.100000
vn 0.000000 0.000000 0.100000
vn 0.000000 0.000000 0.100000
vn 0.000000 0.000000 0.100000
vn 0.000000 -0.000000 0.100000
vn 0.000000 -0.000000 0.100000
vn 0.000000 -0.000000 0.100000
vn 0.000000 -0.000000 0.100000
vn 0.000000 -0.000000 0.100000
vn 0.000000 -0.000000 0.100000
vn 0.000000 -0.000000 0.100000
vn 0.000000 -0.000000 0.100000
vn -0.100000 0.000000 -0.000000
vn -0.100000 0.000000 -0.000000
vn -0.100000 0.000000 -0.000000
vn -0.100000 0.000000 -0.000000
vn 0.100000 0.000000 0.000000
vn 0.100000 0.000000 0.000000
vn 0.100000 0.000000 0.000000
vn 0.100000 0.000000 0.000000
vn 0.000000 0.100000 0.000000
vn 0.000000 0.100000 0.000000
vn 0.000000 0.100000 0.000000
vn 0.000000 0.100000 0.000000
vn 0.000000 0.100000 0.000000
vn 0.000000 0.100000 0.000000
vn 0.000000 0.100000 0.000000
vn 0.000000 0.100000 0.000000
vn 0.000000 0.100000 0.000000
vn 0.000000 0.100000 0.000000
vn 0.000000 0.100000 0.000000
vn 0.000000 0.100000 0.000000
vn 0.000000 0.100000 0.000000
vn 0.000000 0.100000 0.000000
vn 0.000000 0.100000 0.000000
vn 0.000000 0.100000 0.000000
vn 0.100000 0.000000 0.000000
vn 0.100000 0.000000 0.000000
vn 0.100000 0.000000 0.000000
vn 0.100000 0.000000 0.000000
vn -0.000000 0.000000 -0.100000
vn -0.000000 0.000000 -0.100000
vn -0.000000 0.000000 -0.100000
vn -0.000000 0.000000 -0.100000
vn -0.000000 0.000000 -0.100000
vn -0.000000 0.000000 -0.100000
vn -0.000000 0.000000 -0.100000
vn -0.000000 0.000000 -0.100000
vn -0.100000 0.000000 -0.000000
vn -0.100000 0.000000 -0.000000
vn -0.100000 0.000000 -0.000000
vn -0.100000 0.000000 -0.000000
vn 0.000000 0.000000 0.100000
vn 0.000000 0.000000 0.100000
vn 0.000000 0.000000 0.100000
vn 0.000000 0.000000 0.100000
vn 0.000000 -0.100000 0.000000
vn 0.000000 -0.100000 0.000000
vn 0.000000 -0.100000 0.000000
vn 0.000000 -0.100000 0.000000
usemtl Steel_-_Satin
f 1/1/1 2/2/2 4/3/3
f 4/3/3 2/2/2 3/4/4
f 2/5/5 5/6/6 3/7/7
f 3/7/7 5/6/6 6/8/8
f 5/9/9 7/10/10 6/11/11
f 6/11/11 7/10/10 8/12/12
f 8/13/13 4/14/14 6/15/15
f 6/15/15 4/14/14 3/16/16
f 7/17/17 5/18/18 12/19/19
f 12/19/19 5/18/18 11/20/20
f 11/20/20 5/18/18 2/21/21
f 11/20/20 2/21/21 10/22/22
f 10/22/22 2/21/21 9/23/23
f 9/23/23 2/21/21 1/24/24
f 13/25/25 12/26/26 14/27/27
f 14/27/27 12/26/26 11/28/28
f 9/29/29 15/30/30 10/31/31
f 10/31/31 15/30/30 16/32/32
f 10/33/33 16/34/34 11/35/35
f 11/35/35 16/34/34 14/36/36
f 15/37/37 9/38/38 20/39/39
f 20/39/39 9/38/38 19/40/40
f 19/40/40 9/38/38 1/41/41
f 19/40/40 1/41/41 7/42/42
f 7/42/42 1/41/41 8/43/43
f 8/43/43 1/41/41 4/44/44
f 19/40/40 7/42/42 18/45/45
f 18/45/45 7/42/42 12/46/46
f 18/45/45 12/46/46 17/47/47
f 17/47/47 12/46/46 13/48/48
f 20/49/49 19/50/50 22/51/51
f 22/51/51 19/50/50 21/52/52
f 20/53/53 22/54/54 15/55/55
f 15/55/55 22/54/54 13/56/56
f 15/55/55 13/56/56 16/57/57
f 16/57/57 13/56/56 14/58/58
f 22/54/54 23/59/59 13/56/56
f 13/56/56 23/59/59 17/60/60
f 18/61/61 17/62/62 24/63/63
f 24/63/63 17/62/62 23/64/64
f 19/65/65 18/66/66 21/67/67
f 21/67/67 18/66/66 24/68/68
f 24/69/69 23/70/70 21/71/71
f 21/71/71 23/70/70 22/72/72

g Body4

v -6283.601270 0.000000 -10367.997290
v -6283.601270 0.000000 -11367.997290
v -6283.601270 -30.000000 -11367.997290
v -6283.601270 -30.000000 -10367.997290
v -7283.601270 0.000000 -11367.997290
v -7283.601270 -30.000000 -11367.997290
v -7283.601270 0.000000 -10367.997290
v -7283.601270 -30.000000 -10367.997290
v 10503.479606 0.000000 -20993.204574
v 10503.479606 0.000000 9006.795426
v 10503.479606 -500.000000 9006.795426
v 10503.479606 -500.000000 -20993.204574
v -19496.520394 0.000000 -20993.204574
v -19496.520394 -500.000000 -20993.204574
v -19496.520394 0.000000 9006.795426
v -19496.520394 -500.000000 9006.795426
vt -100.000000 0.000000 0.000000
vt -0.000000 0.000000 0.000000
vt -100.000000 3.000000 0.000000
vt -0.000000 3.000000 0.000000
vt -100.000000 0.000000 0.000000
vt -0.000000 0.000000 0.000000
vt -100.000000 3.000000 0.000000
vt -0.000000 3.000000 0.000000
vt -100.000000 0.000000 0.000000
vt -0.000000 0.000000 0.000000
vt -100.000000 3.000000 0.000000
vt -0.000000 3.000000 0.000000
vt -100.000000 0.000000 0.000000
vt -0.000000 0.000000 0.000000
vt -100.000000 3.000000 0.000000
vt -0.000000 3.000000 0.000000
vt 50.000000 50.000000 0.000000
vt -50.000000 50.000000 0.000000
vt 50.000000 -50.000000 0.000000
vt -50.000000 -50.000000 0.000000
vt 0.000000 0.000000 0.000000
vt 2999.999999 0.000000 0.000000
vt 0.000000 50.000000 0.000000
vt 2999.999999 50.000000 0.000000
vt -0.000000 0.000000 0.000000
vt 2999.999999 0.000000 0.000000
vt -0.000000 50.000000 0.000000
vt 2999.999999 50.000000 0.000000
vt 0.000000 0.000000 0.000000
vt 2999.999999 0.000000 0.000000
vt 0.000000 50.000000 0.000000
vt 2999.999999 50.000000 0.000000
vt 0.000000 0.000000 0.000000
vt 2999.999999 0.000000 0.000000
vt 0.000000 50.000000 0.000000
vt 2999.999999 50.000000 0.000000
vt -178.708088 437.479271 0.000000
vt 1500.000000 1500.000000 0.000000
vt -178.708088 537.479271 0.000000
vt -1500.000000 1500.000000 0.000000
vt -278.708088 537.479271 0.000000
vt -278.708088 437.479271 0.000000
vt -1500.000000 -1500.000000 0.000000
vt 1500.000000 -1500.000000 0.000000
vt -1500.000000 -1500.000000 0.000000
vt 1500.000000 -1500.000000 0.000000
vt -1500.000000 1500.000000 0.000000
vt 1500.000000 1500.000000 0.000000
vn -0.100000 0.000000 0.000000
vn -0.100000 0.000000 0.000000
vn -0.100000 0.000000 0.000000
vn -0.100000 0.000000 0.000000
vn 0.000000 0.000000 0.100000
vn 0.000000 0.000000 0.100000
vn 0.000000 0.000000 0.100000
vn 0.000000 0.000000 0.100000
vn 0.100000 0.000000 0.000000
vn 0.100000 0.000000 0.000000
vn 0.100000 0.000000 0.000000
vn 0.100000 0.000000 0.000000
vn 0.000000 0.000000 -0.100000
vn 0.000000 0.000000 -0.100000
vn 0.000000 0.000000 -0.100000
vn 0.000000 0.000000 -0.100000
vn -0.000000 0.100000 -0.000000
vn -0.000000 0.100000 -0.000000
vn -0.000000 0.100000 -0.000000
vn -0.000000 0.100000 -0.000000
vn 0.100000 0.000000 0.000000
vn 0.100000 0.000000 0.000000
vn 0.100000 0.000000 0.000000
vn 0.100000 0.000000 0.000000
vn -0.000000 0.000000 -0.100000
vn -0.000000 0.000000 -0.100000
vn -0.000000 0.000000 -0.100000
vn -0.000000 0.000000 -0.100000
vn -0.100000 0.000000 -0.000000
vn -0.100000 0.000000 -0.000000
vn -0.100000 0.000000 -0.000000
vn -0.100000 0.000000 -0.000000
vn 0.000000 0.000000 0.100000
vn 0.000000 0.000000 0.100000
vn 0.000000 0.000000 0.100000
vn 0.000000 0.000000 0.100000
vn 0.000000 0.100000 0.000000
vn 0.000000 0.100000 0.000000
vn 0.000000 0.100000 0.000000
vn 0.000000 0.100000 0.000000
vn 0.000000 0.100000 0.000000
vn 0.000000 0.100000 0.000000
vn 0.000000 0.100000 0.000000
vn 0.000000 0.100000 0.000000
vn 0.000000 -0.100000 0.000000
vn 0.000000 -0.100000 0.000000
vn 0.000000 -0.100000 0.000000
vn 0.000000 -0.100000 0.000000
f 25/73/73 26/74/74 28/75/75
f 28/75/75 26/74/74 27/76/76
f 26/77/77 29/78/78 27/79/79
f 27/79/79 29/78/78 30/80/80
f 29/81/81 31/82/82 30/83/83
f 30/83/83 31/82/82 32/84/84
f 31/85/85 25/86/86 32/87/87
f 32/87/87 25/86/86 28/88/88
f 28/89/89 27/90/90 32/91/91
f 32/91/91 27/90/90 30/92/92
f 33/93/93 34/94/94 36/95/95
f 36/95/95 34/94/94 35/96/96
f 37/97/97 33/98/98 38/99/99
f 38/99/99 33/98/98 36/100/100
f 39/101/101 37/102/102 40/103/103
f 40/103/103 37/102/102 38/104/104
f 34/105/105 39/106/106 35/107/107
f 35/107/107 39/106/106 40/108/108
f 25/109/109 33/110/110 26/111/111
f 26/111/111 33/110/110 37/112/112
f 26/111/111 37/112/112 29/113/113
f 29/113/113 37/112/112 31/114/114
f 31/114/114 37/112/112 39/115/115
f 31/114/114 39/115/115 25/109/109
f 25/109/109 39/115/115 34/116/116
f 25/109/109 34/116/116 33/110/110
f 40/117/117 38/118/118 35/119/119
f 35/119/119 38/118/118 36/120/120

# 40 vertices
# 120 texture params
# 120 normals
# 72 facets

# 2 groups
